<?xml version="1.0" standalone="no"?>
<!DOCTYPE svg PUBLIC "-//W3C//DTD SVG 20010904//EN"
 "http://www.w3.org/TR/2001/REC-SVG-20010904/DTD/svg10.dtd">
<svg version="1.0" xmlns="http://www.w3.org/2000/svg"
 width="16.000000pt" height="16.000000pt" viewBox="0 0 16.000000 16.000000"
 preserveAspectRatio="xMidYMid meet">

<g transform="translate(0.000000,16.000000) scale(0.100000,-0.100000)"
fill="#000000" stroke="none">
<path d="M4 147 c-3 -8 -4 -43 -2 -78 l3 -64 75 0 75 0 0 75 0 75 -73 3 c-55
2 -74 -1 -78 -11z m128 -24 c22 -20 23 -51 3 -80 -13 -18 -25 -22 -66 -21 -49
1 -69 11 -49 23 5 3 10 1 10 -4 0 -28 19 -6 29 34 6 25 14 45 18 45 3 0 3 -20
0 -45 -6 -40 -5 -45 13 -45 29 0 47 42 32 75 -8 18 -19 25 -40 25 -36 0 -56
-18 -41 -37 8 -9 8 -13 0 -13 -6 0 -14 7 -18 16 -14 38 73 60 109 27z"/>
</g>
</svg>
